<mxfile host="65bd71144e">
    <diagram id="oGoolqYmk7a7VnB3tGOm" name="Page-1">
        <mxGraphModel dx="1597" dy="1101" grid="1" gridSize="10" guides="1" tooltips="1" connect="1" arrows="1" fold="1" page="1" pageScale="1" pageWidth="827" pageHeight="1169" math="0" shadow="0">
            <root>
                <mxCell id="0"/>
                <mxCell id="1" parent="0"/>
                <mxCell id="9" value="Horizontal Tree Layout" style="swimlane;startSize=20;horizontal=0;childLayout=treeLayout;horizontalTree=1;resizable=0;containerType=tree;" vertex="1" parent="1">
                    <mxGeometry x="64" y="185" width="700" height="800" as="geometry"/>
                </mxCell>
                <mxCell id="10" value="Qlib Strategies" style="whiteSpace=wrap;html=1;" vertex="1" parent="9">
                    <mxGeometry x="40" y="470" width="100" height="40" as="geometry"/>
                </mxCell>
                <mxCell id="11" value="BaseStrategy" style="whiteSpace=wrap;html=1;" vertex="1" parent="9">
                    <mxGeometry x="190" y="240" width="120" height="40" as="geometry"/>
                </mxCell>
                <mxCell id="12" value="" style="edgeStyle=elbowEdgeStyle;elbow=horizontal;html=1;rounded=0;" edge="1" parent="9" source="10" target="11">
                    <mxGeometry relative="1" as="geometry"/>
                </mxCell>
                <mxCell id="22" value="" style="edgeStyle=elbowEdgeStyle;elbow=horizontal;html=1;rounded=0;" edge="1" target="23" source="11" parent="9">
                    <mxGeometry relative="1" as="geometry">
                        <mxPoint x="340" y="-1241.2" as="sourcePoint"/>
                    </mxGeometry>
                </mxCell>
                <mxCell id="23" value="property" style="whiteSpace=wrap;html=1;" vertex="1" parent="9">
                    <mxGeometry x="360" y="100" width="120" height="40" as="geometry"/>
                </mxCell>
                <mxCell id="24" value="" style="edgeStyle=elbowEdgeStyle;elbow=horizontal;html=1;rounded=0;" edge="1" target="25" source="23" parent="9">
                    <mxGeometry relative="1" as="geometry">
                        <mxPoint x="510" y="-1321.2" as="sourcePoint"/>
                    </mxGeometry>
                </mxCell>
                <mxCell id="25" value="level_infra" style="whiteSpace=wrap;html=1;" vertex="1" parent="9">
                    <mxGeometry x="530" y="20" width="120" height="40" as="geometry"/>
                </mxCell>
                <mxCell id="26" value="" style="edgeStyle=elbowEdgeStyle;elbow=horizontal;html=1;rounded=0;" edge="1" target="27" source="23" parent="9">
                    <mxGeometry relative="1" as="geometry">
                        <mxPoint x="350" y="-1301.2" as="sourcePoint"/>
                    </mxGeometry>
                </mxCell>
                <mxCell id="27" value="common_infra" style="whiteSpace=wrap;html=1;" vertex="1" parent="9">
                    <mxGeometry x="530" y="100" width="120" height="40" as="geometry"/>
                </mxCell>
                <mxCell id="28" value="" style="edgeStyle=elbowEdgeStyle;elbow=horizontal;html=1;rounded=0;" edge="1" target="29" source="23" parent="9">
                    <mxGeometry relative="1" as="geometry">
                        <mxPoint x="350" y="-1181.2" as="sourcePoint"/>
                    </mxGeometry>
                </mxCell>
                <mxCell id="29" value="trade_exchange" style="whiteSpace=wrap;html=1;" vertex="1" parent="9">
                    <mxGeometry x="530" y="180" width="120" height="40" as="geometry"/>
                </mxCell>
                <mxCell id="31" value="" style="edgeStyle=elbowEdgeStyle;elbow=horizontal;html=1;rounded=0;" edge="1" target="32" source="11" parent="9">
                    <mxGeometry relative="1" as="geometry">
                        <mxPoint x="180" y="-941.2" as="sourcePoint"/>
                    </mxGeometry>
                </mxCell>
                <mxCell id="32" value="method" style="whiteSpace=wrap;html=1;" vertex="1" parent="9">
                    <mxGeometry x="360" y="380" width="120" height="40" as="geometry"/>
                </mxCell>
                <mxCell id="35" value="" style="edgeStyle=elbowEdgeStyle;elbow=horizontal;html=1;rounded=0;" edge="1" target="36" source="32" parent="9">
                    <mxGeometry relative="1" as="geometry">
                        <mxPoint x="350" y="-1039.92" as="sourcePoint"/>
                    </mxGeometry>
                </mxCell>
                <mxCell id="36" value="trade_calendar" style="whiteSpace=wrap;html=1;" vertex="1" parent="9">
                    <mxGeometry x="530" y="260" width="120" height="40" as="geometry"/>
                </mxCell>
                <mxCell id="37" value="" style="edgeStyle=elbowEdgeStyle;elbow=horizontal;html=1;rounded=0;" edge="1" target="38" source="32" parent="9">
                    <mxGeometry relative="1" as="geometry">
                        <mxPoint x="520" y="-962" as="sourcePoint"/>
                    </mxGeometry>
                </mxCell>
                <mxCell id="38" value="trade_position" style="whiteSpace=wrap;html=1;" vertex="1" parent="9">
                    <mxGeometry x="530" y="340" width="120" height="40" as="geometry"/>
                </mxCell>
                <mxCell id="39" value="" style="edgeStyle=elbowEdgeStyle;elbow=horizontal;html=1;rounded=0;" edge="1" target="40" source="32" parent="9">
                    <mxGeometry relative="1" as="geometry">
                        <mxPoint x="520" y="-661.2" as="sourcePoint"/>
                    </mxGeometry>
                </mxCell>
                <mxCell id="40" value="trade_exchange" style="whiteSpace=wrap;html=1;" vertex="1" parent="9">
                    <mxGeometry x="530" y="420" width="120" height="40" as="geometry"/>
                </mxCell>
                <mxCell id="41" value="" style="edgeStyle=elbowEdgeStyle;elbow=horizontal;html=1;rounded=0;" edge="1" target="42" source="32" parent="9">
                    <mxGeometry relative="1" as="geometry">
                        <mxPoint x="520" y="-646.4000000000001" as="sourcePoint"/>
                    </mxGeometry>
                </mxCell>
                <mxCell id="42" value="generate_trade_exchange" style="whiteSpace=wrap;html=1;" vertex="1" parent="9">
                    <mxGeometry x="530" y="500" width="150" height="40" as="geometry"/>
                </mxCell>
                <mxCell id="43" value="" style="edgeStyle=none;html=1;" edge="1" source="10" target="44" parent="9">
                    <mxGeometry relative="1" as="geometry"/>
                </mxCell>
                <mxCell id="44" value="BaseSignalStrategy" style="whiteSpace=wrap;html=1;" vertex="1" parent="9">
                    <mxGeometry x="192.99999999999986" y="580" width="100" height="40" as="geometry"/>
                </mxCell>
                <mxCell id="47" value="" style="edgeStyle=none;html=1;" edge="1" target="48" source="44" parent="9">
                    <mxGeometry relative="1" as="geometry">
                        <mxPoint x="174.11764705882342" y="-347.20000000000005" as="sourcePoint"/>
                    </mxGeometry>
                </mxCell>
                <mxCell id="48" value="property" style="whiteSpace=wrap;html=1;" vertex="1" parent="9">
                    <mxGeometry x="346.00000000000006" y="580" width="100" height="40" as="geometry"/>
                </mxCell>
                <mxCell id="49" value="" style="edgeStyle=none;html=1;" edge="1" target="50" source="48" parent="9">
                    <mxGeometry relative="1" as="geometry">
                        <mxPoint x="333" y="87.20000000000005" as="sourcePoint"/>
                    </mxGeometry>
                </mxCell>
                <mxCell id="50" value="signal" style="whiteSpace=wrap;html=1;" vertex="1" parent="9">
                    <mxGeometry x="496.00000000000006" y="580" width="100" height="40" as="geometry"/>
                </mxCell>
                <mxCell id="51" value="" style="edgeStyle=none;html=1;" edge="1" target="52" source="10" parent="9">
                    <mxGeometry relative="1" as="geometry">
                        <mxPoint x="148" y="380" as="sourcePoint"/>
                    </mxGeometry>
                </mxCell>
                <mxCell id="52" value="BuiltinStrategy" style="whiteSpace=wrap;html=1;" vertex="1" parent="9">
                    <mxGeometry x="190" y="700" width="100" height="40" as="geometry"/>
                </mxCell>
                <mxCell id="53" value="" style="edgeStyle=none;html=1;" edge="1" target="54" source="52" parent="9">
                    <mxGeometry relative="1" as="geometry">
                        <mxPoint x="144.28571428571433" y="810" as="sourcePoint"/>
                    </mxGeometry>
                </mxCell>
                <mxCell id="54" value="TopkDropoutStrategy" style="whiteSpace=wrap;html=1;" vertex="1" parent="9">
                    <mxGeometry x="346.00000000000006" y="660" width="100" height="40" as="geometry"/>
                </mxCell>
                <mxCell id="55" value="" style="edgeStyle=none;html=1;" edge="1" target="56" source="52" parent="9">
                    <mxGeometry relative="1" as="geometry">
                        <mxPoint x="330" y="1000" as="sourcePoint"/>
                    </mxGeometry>
                </mxCell>
                <mxCell id="56" value="EnhancedIndexingStrategy" style="whiteSpace=wrap;html=1;" vertex="1" parent="9">
                    <mxGeometry x="362.0000000000001" y="740" width="100" height="40" as="geometry"/>
                </mxCell>
            </root>
        </mxGraphModel>
    </diagram>
</mxfile>